<svg xmlns="http://www.w3.org/2000/svg" viewBox="0 0 512 320" fill="none">
  <rect width="512" height="320" rx="32" fill="#091A17"/>
  <rect x="28" y="28" width="456" height="264" rx="24" fill="#0E251F" stroke="rgba(255,255,255,0.08)"/>
  <circle cx="90" cy="78" r="18" fill="#F7C948"/>
  <path d="M84 170c34-52 79-78 136-78 33 0 63 12 88 37-27-1-47 5-63 19 31 7 50 28 57 61-25-8-46-8-66 6-24 21-52 31-86 31-49 0-88-25-119-76 20 4 37 4 53 0z" fill="#12C48B"/>
  <rect x="286" y="84" width="154" height="24" rx="12" fill="#14352D"/>
  <rect x="286" y="122" width="116" height="16" rx="8" fill="#1B463C"/>
  <rect x="286" y="156" width="98" height="16" rx="8" fill="#1B463C"/>
  <rect x="286" y="218" width="126" height="14" rx="7" fill="#225949"/>
  <rect x="286" y="240" width="86" height="14" rx="7" fill="#225949"/>
</svg>
